<svg xmlns="http://www.w3.org/2000/svg" width="82.051" height="80" viewBox="0 0 82.051 80">
  <g id="Gruppe_11" data-name="Gruppe 11" transform="translate(-840 -2110)">
    <path id="Pfad_9" data-name="Pfad 9" d="M14.53,0H67.521a14.518,14.518,0,0,1,14.53,14.53V65.47A14.518,14.518,0,0,1,67.521,80H14.53A14.518,14.518,0,0,1,0,65.47V14.53A14.518,14.518,0,0,1,14.53,0" transform="translate(840 2110)" fill="#5d5d5d"/>
    <path id="Pfad_10" data-name="Pfad 10" d="M54,95.261V60.081c0-.239.1-.376.342-.376.581,0,1.128,0,1.915-.034.821-.034,1.675-.034,2.6-.068s1.915-.034,2.974-.068,2.085-.034,3.111-.034a20.1,20.1,0,0,1,7.043,1.06,12.209,12.209,0,0,1,4.581,2.8,10.885,10.885,0,0,1,2.5,3.9,13.085,13.085,0,0,1,.786,4.444,12.223,12.223,0,0,1-2.051,7.282,11.713,11.713,0,0,1-5.5,4.171A22.157,22.157,0,0,1,64.6,84.321c-.821,0-1.368,0-1.709-.034s-.821-.034-1.47-.034V95.227a.425.425,0,0,1-.376.479H54.41c-.274,0-.41-.137-.41-.444M61.453,66.3V77.791c.479.034.923.068,1.333.068H64.6a12.771,12.771,0,0,0,3.932-.615,5.879,5.879,0,0,0,2.8-1.812,5.283,5.283,0,0,0,1.06-3.521,5.627,5.627,0,0,0-.786-3.043,4.958,4.958,0,0,0-2.393-1.949,10.032,10.032,0,0,0-4.034-.684c-.889,0-1.675,0-2.325.034a7.828,7.828,0,0,0-1.4.034" transform="translate(804.462 2070.842)" fill="#fff"/>
    <path id="Pfad_11" data-name="Pfad 11" d="M157.967,92.026a12.1,12.1,0,0,0-3.282-1.162,18.022,18.022,0,0,0-3.829-.444,6.884,6.884,0,0,0-2.051.239,1.755,1.755,0,0,0-1.06.684,1.812,1.812,0,0,0-.274.923,1.521,1.521,0,0,0,.342.889,3.858,3.858,0,0,0,1.162.923c.786.41,1.607.786,2.427,1.128a24.762,24.762,0,0,1,5.265,2.5,7.955,7.955,0,0,1,2.7,2.838,7.38,7.38,0,0,1,.786,3.521,7.954,7.954,0,0,1-1.333,4.547,8.567,8.567,0,0,1-3.829,3.043,15.664,15.664,0,0,1-6.188,1.094,23.55,23.55,0,0,1-4.65-.444,13.791,13.791,0,0,1-3.487-1.094.672.672,0,0,1-.376-.65v-5.949a.371.371,0,0,1,.137-.308.26.26,0,0,1,.308.034,14.635,14.635,0,0,0,4.239,1.675,15.916,15.916,0,0,0,4.034.513,6.525,6.525,0,0,0,2.838-.479,1.588,1.588,0,0,0,.923-1.436,1.811,1.811,0,0,0-.821-1.368,14.5,14.5,0,0,0-3.35-1.607,20.918,20.918,0,0,1-4.855-2.462,8.853,8.853,0,0,1-2.6-2.906,7.336,7.336,0,0,1-.786-3.487,8.041,8.041,0,0,1,1.162-4.137,8.427,8.427,0,0,1,3.59-3.145,13.257,13.257,0,0,1,6.051-1.2,29.473,29.473,0,0,1,4.239.308,12.029,12.029,0,0,1,2.94.786.6.6,0,0,1,.342.308,1.716,1.716,0,0,1,.068.41v5.573a.421.421,0,0,1-.171.342.911.911,0,0,1-.615,0" transform="translate(747.674 2054.521)" fill="#fff"/>
  </g>
</svg>
