<svg xmlns="http://www.w3.org/2000/svg" width="80" height="80" viewBox="0 0 80 80">
  <g id="Gruppe_7" data-name="Gruppe 7" transform="translate(-774 -1912.75)">
    <rect id="Rechteck_4" data-name="Rechteck 4" width="80" height="80" transform="translate(774 1912.75)" fill="#5d5d5d"/>
    <path id="Pfad_2" data-name="Pfad 2" d="M198.474,312.021c1.607,2.625,3.7,4.554,7.4,4.554,3.107,0,5.092-1.553,5.092-3.7,0-2.571-2.039-3.482-5.459-4.978l-1.875-.8c-5.411-2.305-9.006-5.193-9.006-11.3,0-5.624,4.285-9.905,10.982-9.905,4.768,0,8.2,1.659,10.665,6l-5.839,3.749c-1.286-2.305-2.673-3.214-4.826-3.214a3.263,3.263,0,0,0-3.588,3.214c0,2.25,1.393,3.16,4.611,4.554l1.875.8c6.371,2.732,9.969,5.518,9.969,11.78,0,6.751-5.3,10.45-12.426,10.45-6.964,0-11.463-3.319-13.665-7.668Zm-26.49.65c1.178,2.09,2.25,3.857,4.826,3.857,2.464,0,4.018-.964,4.018-4.712v-25.5h7.5v25.6c0,7.765-4.552,11.3-11.2,11.3-6,0-9.481-3.107-11.249-6.849Z" transform="translate(629.131 1663.273)" fill="#fff"/>
  </g>
</svg>
