<svg xmlns="http://www.w3.org/2000/svg" width="82.051" height="80" viewBox="0 0 82.051 80">
  <g id="Gruppe_9" data-name="Gruppe 9" transform="translate(-1110 -1995)">
    <path id="Pfad_4" data-name="Pfad 4" d="M14.53,0H67.521a14.518,14.518,0,0,1,14.53,14.53V65.47A14.518,14.518,0,0,1,67.521,80H14.53A14.518,14.518,0,0,1,0,65.47V14.53A14.518,14.518,0,0,1,14.53,0" transform="translate(1110 1995)" fill="#5d5d5d"/>
    <path id="Pfad_5" data-name="Pfad 5" d="M72.524,60.334V95.548c0,.376-.171.547-.479.547h-6.7c-.308,0-.444-.171-.444-.547V60.334c0-.308.171-.444.479-.444h6.667a.386.386,0,0,1,.444.342.126.126,0,0,1,.034.1" transform="translate(1067.288 1955.589)" fill="#fff"/>
    <path id="Pfad_6" data-name="Pfad 6" d="M117.291,90.845a17,17,0,0,1-7.35-1.538,11.919,11.919,0,0,1-5.162-4.65,14.793,14.793,0,0,1-1.88-7.795,14.041,14.041,0,0,1,1.88-7.214,14.2,14.2,0,0,1,5.436-5.3,17.488,17.488,0,0,1,8.65-1.983,6.106,6.106,0,0,1,.718.034c.308.034.65.034,1.06.068v-10.8c0-.239.1-.376.342-.376h6.94a.307.307,0,0,1,.342.239V84.144c0,.615.034,1.3.068,2.051.068.718.1,1.4.137,1.983a.555.555,0,0,1-.342.547,26.111,26.111,0,0,1-5.573,1.641A29.858,29.858,0,0,1,117.291,90.845Zm3.35-6.838V68.965a8.748,8.748,0,0,0-.923-.171c-.376-.034-.752-.068-1.128-.068a8.428,8.428,0,0,0-3.863.889,7.664,7.664,0,0,0-2.906,2.53,7.578,7.578,0,0,0-1.128,4.342,9.527,9.527,0,0,0,.581,3.521,6.681,6.681,0,0,0,1.538,2.427,5.906,5.906,0,0,0,2.325,1.368,8.949,8.949,0,0,0,2.838.444c.513,0,.991-.034,1.436-.068A2.911,2.911,0,0,0,120.641,84.008Z" transform="translate(1042.282 1961.249)" fill="#fff"/>
  </g>
</svg>
