<svg xmlns="http://www.w3.org/2000/svg" width="82.051" height="80" viewBox="0 0 82.051 80">
  <g id="Gruppe_10" data-name="Gruppe 10" transform="translate(-840 -2110)">
    <path id="Pfad_7" data-name="Pfad 7" d="M14.53,0H67.521a14.518,14.518,0,0,1,14.53,14.53V65.47A14.518,14.518,0,0,1,67.521,80H14.53A14.518,14.518,0,0,1,0,65.47V14.53A14.518,14.518,0,0,1,14.53,0" transform="translate(840 2110)" fill="#5d5d5d"/>
    <path id="Pfad_8" data-name="Pfad 8" d="M72.1,82.02H59.379l-2.6,8.034a.6.6,0,0,1-.65.479H49.7c-.376,0-.479-.205-.376-.615L60.336,58.225c.1-.342.205-.718.342-1.128a11.942,11.942,0,0,0,.205-2.222.339.339,0,0,1,.274-.376h8.855c.274,0,.41.1.444.274L82.935,89.985c.1.376,0,.547-.342.547H75.448a.516.516,0,0,1-.547-.376Zm-10.735-6.94h8.684c-.205-.718-.479-1.573-.786-2.462-.308-.923-.615-1.915-.923-2.94-.342-1.06-.65-2.085-.991-3.145s-.65-2.051-.923-3.043c-.274-.957-.513-1.846-.752-2.667H65.6a41.98,41.98,0,0,1-1.162,4.41c-.513,1.641-1.026,3.35-1.573,5.06-.479,1.744-.991,3.35-1.5,4.786m29.2-14.6a4.231,4.231,0,0,1-3.043-1.2,4.441,4.441,0,0,1-1.162-3.145A4.022,4.022,0,0,1,87.584,53.1a4.378,4.378,0,0,1,3.043-1.2,4.094,4.094,0,0,1,3.111,1.2,4.7,4.7,0,0,1-.068,6.188A4.02,4.02,0,0,1,90.559,60.481ZM86.73,90.156V63.832c0-.342.137-.479.444-.479h6.769c.308,0,.444.171.444.479V90.156c0,.376-.137.547-.444.547h-6.7a.478.478,0,0,1-.513-.547" transform="translate(807.561 2075.844)" fill="#fff"/>
  </g>
</svg>
