<svg xmlns="http://www.w3.org/2000/svg" width="82.051" height="80" viewBox="0 0 82.051 80">
  <g id="Gruppe_21" data-name="Gruppe 21" transform="translate(-1742 -2355)">
    <path id="Pfad_16" data-name="Pfad 16" d="M14.53,0H67.521a14.518,14.518,0,0,1,14.53,14.53V65.47A14.518,14.518,0,0,1,67.521,80H14.53A14.518,14.518,0,0,1,0,65.47V14.53A14.518,14.518,0,0,1,14.53,0" transform="translate(1742 2355)" fill="#5d5d5d"/>
    <g id="Gruppe_20" data-name="Gruppe 20" transform="translate(1753.49 2368.604)">
      <path id="Pfad_32" data-name="Pfad 32" d="M59.858,26.691c0-4.2-4.927-7.823-12.578-10.017C49.206,8.947,48.524,2.865,44.893.77c-3.029-1.746-7.415-.5-12.357,3.513-.869.705-1.738,1.507-2.608,2.35-.867-.843-1.738-1.645-2.608-2.35C22.382.268,17.991-.976,14.964.77s-4.143,6.173-3.133,12.458c.177,1.111.435,2.269.734,3.448C4.921,18.871,0,22.5,0,26.691S4.921,34.507,12.565,36.7c-.3,1.182-.557,2.34-.734,3.451-1.01,6.285.107,10.709,3.133,12.456a5.929,5.929,0,0,0,3.016.773c2.652,0,5.861-1.457,9.34-4.286.869-.705,1.741-1.5,2.608-2.347.869.843,1.738,1.642,2.608,2.347,3.482,2.829,6.688,4.286,9.34,4.286a5.922,5.922,0,0,0,3.016-.773c3.029-1.746,4.143-6.171,3.136-12.456-.177-1.111-.437-2.269-.734-3.451,7.641-2.194,12.562-5.822,12.562-10.009M34.179,6.306c2.988-2.433,5.668-3.711,7.662-3.711a3.44,3.44,0,0,1,1.751.429c2.355,1.359,2.852,6.29,1.171,13A60.762,60.762,0,0,0,36.8,14.782,61.676,61.676,0,0,0,31.746,8.5c.812-.789,1.624-1.535,2.433-2.191m4.091,25.2c-.924,1.6-1.892,3.139-2.891,4.606-1.746.13-3.56.206-5.45.206s-3.7-.075-5.447-.206c-1-1.468-1.968-3.009-2.891-4.606s-1.775-3.214-2.548-4.817c.773-1.6,1.624-3.212,2.548-4.815s1.892-3.139,2.891-4.609c1.744-.13,3.56-.206,5.447-.206s3.7.075,5.45.208c1,1.468,1.968,3.009,2.891,4.606s1.772,3.209,2.545,4.809c-.76,1.577-1.6,3.185-2.545,4.822m3.922-1.759c.731,1.736,1.356,3.441,1.876,5.1-1.666.377-3.454.695-5.364.937.619-.971,1.231-1.957,1.819-2.975s1.14-2.046,1.668-3.061m-12.26,13.27c-1.182-1.283-2.347-2.678-3.485-4.18,1.143.049,2.3.083,3.482.083s2.342-.034,3.485-.083q-1.71,2.252-3.482,4.18m-8.776-7.235c-1.913-.242-3.7-.56-5.364-.937.521-1.66,1.145-3.365,1.876-5.1.531,1.023,1.08,2.046,1.668,3.063s1.2,2,1.819,2.975M17.671,23.636c-.734-1.736-1.359-3.443-1.879-5.1,1.666-.375,3.454-.695,5.364-.934-.619.971-1.231,1.957-1.819,2.975s-1.137,2.04-1.666,3.063M29.929,10.363c1.179,1.28,2.345,2.675,3.485,4.18-1.145-.052-2.3-.086-3.485-.086s-2.34.034-3.482.086q1.71-2.256,3.482-4.18m10.595,10.21c-.588-1.018-1.2-2-1.822-2.975,1.91.239,3.693.557,5.359.934-.507,1.627-1.124,3.331-1.869,5.106-.531-1.023-1.083-2.046-1.668-3.066M14.4,12.817c-.812-5.07-.133-8.638,1.866-9.793a3.447,3.447,0,0,1,1.751-.429c2,0,4.674,1.278,7.664,3.711.809.656,1.621,1.4,2.433,2.191a61.323,61.323,0,0,0-5.059,6.285,60.889,60.889,0,0,0-7.972,1.247c-.278-1.1-.521-2.178-.684-3.212M2.6,26.691c0-2.72,4.021-5.616,10.668-7.516a61.606,61.606,0,0,0,2.91,7.513A61.77,61.77,0,0,0,13.27,34.2C6.623,32.3,2.6,29.409,2.6,26.691M25.682,47.074c-3.984,3.238-7.415,4.429-9.416,3.282s-2.678-4.726-1.866-9.8c.164-1.031.406-2.111.682-3.209A61,61,0,0,0,23.056,38.6a61.607,61.607,0,0,0,5.059,6.285c-.812.786-1.624,1.533-2.433,2.191M45.461,40.56c.812,5.07.13,8.64-1.869,9.8s-5.431-.042-9.413-3.282c-.809-.658-1.621-1.405-2.433-2.191A61.9,61.9,0,0,0,36.8,38.6a60.958,60.958,0,0,0,7.972-1.247c.278,1.1.518,2.176.684,3.209M46.59,34.2a62,62,0,0,0-2.91-7.511,61.285,61.285,0,0,0,2.9-7.516c6.652,1.9,10.673,4.8,10.673,7.516S53.237,32.3,46.59,34.2" transform="translate(0 0)" fill="#fff"/>
      <path id="Pfad_31" data-name="Pfad 31" d="M14.785,8.205A5.335,5.335,0,1,1,9.45,13.54a5.336,5.336,0,0,1,5.335-5.335" transform="translate(15.144 13.149)" fill="#fff"/>
    </g>
  </g>
</svg>
