<svg xmlns="http://www.w3.org/2000/svg" width="82.024" height="80" viewBox="0 0 82.024 80">
  <path id="Pfad_4" data-name="Pfad 4" d="M41.012,0a41.014,41.014,0,0,0-12.97,79.922c2.051.359,2.82-.871,2.82-1.948,0-.974-.051-4.2-.051-7.638-10.3,1.9-12.97-2.512-13.79-4.819-.461-1.179-2.461-4.819-4.2-5.793-1.435-.769-3.486-2.666-.051-2.717,3.23-.051,5.537,2.973,6.306,4.2,3.691,6.2,9.586,4.46,11.945,3.383a8.627,8.627,0,0,1,2.614-5.485c-9.125-1.025-18.66-4.563-18.66-20.25a15.961,15.961,0,0,1,4.2-11.022,14.737,14.737,0,0,1,.41-10.868s3.435-1.077,11.278,4.2a38.666,38.666,0,0,1,20.506,0c7.843-5.332,11.278-4.2,11.278-4.2a14.737,14.737,0,0,1,.41,10.868,15.868,15.868,0,0,1,4.2,11.022c0,15.738-9.586,19.224-18.712,20.25,1.487,1.282,2.768,3.742,2.768,7.587,0,5.485-.051,9.894-.051,11.278,0,1.077.769,2.358,2.82,1.948A41.033,41.033,0,0,0,41.012,0" fill="#5d5d5d" fill-rule="evenodd"/>
</svg>
