<svg xmlns="http://www.w3.org/2000/svg" width="80.003" height="80" viewBox="0 0 80.003 80">
  <path id="Pfad_3" data-name="Pfad 3" d="M78.495,36.436,43.563,1.508a5.151,5.151,0,0,0-7.285,0L29.024,8.762l9.2,9.2a6.119,6.119,0,0,1,7.748,7.8l8.868,8.868a6.122,6.122,0,1,1-3.673,3.456l-8.27-8.27V51.58a6.119,6.119,0,1,1-5.04-.178V29.436A6.049,6.049,0,0,1,35.85,28.1a6.13,6.13,0,0,1-1.321-6.7l-9.07-9.071L1.509,36.275a5.154,5.154,0,0,0,0,7.288L36.439,78.49a5.153,5.153,0,0,0,7.286,0L78.494,43.727a5.155,5.155,0,0,0,0-7.288" transform="translate(0 0.001)" fill="#5d5d5d"/>
</svg>
