<svg xmlns="http://www.w3.org/2000/svg" width="70.54" height="80" viewBox="0 0 70.54 80">
  <g id="Gruppe_17" data-name="Gruppe 17" transform="translate(-960 -2711)">
    <path id="Pfad_22" data-name="Pfad 22" d="M0,0,6.42,72l28.807,8,28.887-8.008L70.54,0Z" transform="translate(960 2711)" fill="#5d5d5d"/>
    <path id="Pfad_23" data-name="Pfad 23" d="M114.852,126.79h12.493v-8.831H105.2l.211,2.369,2.171,24.336h19.762v-8.831H115.659Zm1.99,22.289h-8.865l1.237,13.866,18.089,5.021.041-.011v-9.188l-.039.01-9.835-2.656Z" transform="translate(867.925 2607.759)" fill="#eaeaea"/>
    <path id="Pfad_24" data-name="Pfad 24" d="M282.425,144.664H293.3l-1.025,11.453-9.849,2.658v9.187l18.1-5.017.133-1.492,2.076-23.249.215-2.371H282.425Zm0-17.9v.022h21.331l.177-1.985.4-4.477.211-2.369H282.425v8.81Z" transform="translate(712.814 2607.759)" fill="#fff"/>
  </g>
</svg>
