<svg xmlns="http://www.w3.org/2000/svg" width="82.051" height="80" viewBox="0 0 82.051 80">
  <g id="Gruppe_16" data-name="Gruppe 16" transform="translate(-1535 -2360)">
    <g id="Gruppe_14" data-name="Gruppe 14" transform="translate(1535 2360)">
      <path id="Pfad_16" data-name="Pfad 16" d="M14.53,0H67.521a14.518,14.518,0,0,1,14.53,14.53V65.47A14.518,14.518,0,0,1,67.521,80H14.53A14.518,14.518,0,0,1,0,65.47V14.53A14.518,14.518,0,0,1,14.53,0" transform="translate(0)" fill="#5d5d5d"/>
    </g>
    <g id="Gruppe_15" data-name="Gruppe 15" transform="translate(1548.73 2373.655)">
      <path id="Pfad_19" data-name="Pfad 19" d="M52.275,5.707,41.116.334a3.373,3.373,0,0,0-3.849.654L.736,34.3a2.257,2.257,0,0,0,0,3.337l2.984,2.713a2.257,2.257,0,0,0,2.882.128L50.6,7.1a2.241,2.241,0,0,1,3.6,1.785V8.757a3.385,3.385,0,0,0-1.917-3.05" transform="translate(0 0)" fill="#bababa"/>
      <path id="Pfad_20" data-name="Pfad 20" d="M52.275,59.131,41.116,64.5a3.373,3.373,0,0,1-3.849-.654L.736,30.542a2.257,2.257,0,0,1,0-3.337l2.984-2.713A2.257,2.257,0,0,1,6.6,24.364L50.6,57.736a2.241,2.241,0,0,0,3.6-1.785v.129a3.385,3.385,0,0,1-1.917,3.05" transform="translate(0 -10.958)" fill="#eaeaea"/>
      <path id="Pfad_21" data-name="Pfad 21" d="M72.661,53.547a3.375,3.375,0,0,1-3.85-.655,1.983,1.983,0,0,0,3.385-1.4V2.391a1.983,1.983,0,0,0-3.385-1.4,3.376,3.376,0,0,1,3.85-.655L83.818,5.7A3.385,3.385,0,0,1,85.736,8.75V45.131a3.384,3.384,0,0,1-1.918,3.05Z" transform="translate(-31.544 0)" fill="#fff"/>
    </g>
  </g>
</svg>
