<svg xmlns="http://www.w3.org/2000/svg" width="70.54" height="80" viewBox="0 0 70.54 80">
  <g id="Gruppe_19" data-name="Gruppe 19" transform="translate(-1371.633 -2614)">
    <path id="Pfad_25" data-name="Pfad 25" d="M0,0,6.42,72l28.807,8,28.887-8.008L70.54,0Z" transform="translate(1371.633 2614)" fill="#5d5d5d"/>
    <g id="Gruppe_18" data-name="Gruppe 18" transform="translate(1384.759 2628.718)">
      <path id="Pfad_27" data-name="Pfad 27" d="M75.677,167.6l.791,8.831H96.23V167.6Z" transform="translate(-74.087 -149.723)" fill="#eaeaea"/>
      <path id="Pfad_28" data-name="Pfad 28" d="M67.5,75.685l.8,8.831H89.643V75.685H67.5Z" transform="translate(-67.499 -75.685)" fill="#eaeaea"/>
      <path id="Pfad_29" data-name="Pfad 29" d="M101.143,245.4l-.039.01-9.835-2.656-.629-7.043H81.776l1.237,13.866L101.1,254.6l.041-.011Z" transform="translate(-79 -204.593)" fill="#eaeaea"/>
    </g>
    <path id="Pfad_30" data-name="Pfad 30" d="M201.737,93.559l1.594-17.874H181.21v8.831h12.444l-.8,9.043H181.21v8.831h10.874l-1.025,11.453L181.21,116.5v9.187l18.1-5.017.133-1.492,2.075-23.249Z" transform="translate(1225.663 2553.033)" fill="#fff"/>
  </g>
</svg>
